<svg width="308" height="44" viewBox="0 0 308 44" fill="none" xmlns="http://www.w3.org/2000/svg">
<path d="M2.936 44C1.22933 44 0.376 43.1467 0.376 41.44V39.84C0.376 38.176 1.22933 37.344 2.936 37.344H4.472C6.09333 37.344 6.904 38.176 6.904 39.84V41.44C6.904 43.1467 6.09333 44 4.472 44H2.936ZM22.746 29.984V31.52C22.746 34.272 23.2473 36.1493 24.25 37.152C25.2527 38.1333 27.1407 38.624 29.914 38.624H35.162C37.338 38.624 38.9487 38.4213 39.994 38.016C41.0393 37.6107 41.7327 36.896 42.074 35.872C42.3087 35.0613 42.6287 34.4427 43.034 34.016C43.4607 33.5893 44.1007 33.376 44.954 33.376C45.85 33.376 46.5327 33.6107 47.002 34.08C47.4713 34.5493 47.6207 35.232 47.45 36.128C46.9807 38.7733 45.722 40.7467 43.674 42.048C41.626 43.3493 38.7887 44 35.162 44H29.914C25.6687 44 22.5113 42.976 20.442 40.928C18.394 38.88 17.37 35.744 17.37 31.52V24.096C17.37 19.7653 18.394 16.5867 20.442 14.56C22.5113 12.512 25.6687 11.5093 29.914 11.552H35.162C39.4287 11.552 42.586 12.576 44.634 14.624C46.682 16.6507 47.706 19.808 47.706 24.096V27.296C47.706 29.088 46.81 29.984 45.018 29.984H22.746ZM29.914 16.928C27.1407 16.8853 25.2527 17.3653 24.25 18.368C23.2473 19.3707 22.746 21.28 22.746 24.096V24.608H42.33V24.096C42.33 21.3013 41.8287 19.4133 40.826 18.432C39.8447 17.4293 37.9567 16.928 35.162 16.928H29.914ZM62.1565 44C60.3645 44 59.4685 43.104 59.4685 41.312V14.24C59.4685 12.448 60.3645 11.552 62.1565 11.552C63.9485 11.552 64.8445 12.448 64.8445 14.24V15.296C67.1058 12.8 70.4338 11.552 74.8285 11.552H76.6205C80.8872 11.552 84.0445 12.576 86.0925 14.624C88.1405 16.672 89.1645 19.8293 89.1645 24.096V41.312C89.1645 43.104 88.2685 44 86.4765 44C84.6845 44 83.7885 43.104 83.7885 41.312V24.096C83.7885 21.3013 83.2765 19.4133 82.2525 18.432C81.2498 17.4293 79.3725 16.928 76.6205 16.928H74.8285C72.2685 16.928 70.0392 17.2267 68.1405 17.824C66.2418 18.4 65.1432 19.3173 64.8445 20.576V41.312C64.8445 43.104 63.9485 44 62.1565 44ZM113.891 42.016C113.613 42.6773 113.219 43.1787 112.707 43.52C112.216 43.84 111.587 44 110.819 44C109.475 44 108.515 43.296 107.939 41.888L97.0585 15.392C96.3118 13.6853 96.7812 12.512 98.4665 11.872C100.067 11.1253 101.24 11.5947 101.987 13.28L112.163 38.112H109.667L120.803 13.152C121.165 12.448 121.656 11.968 122.275 11.712C122.915 11.456 123.619 11.5093 124.387 11.872C125.965 12.6187 126.392 13.8133 125.667 15.456L113.891 42.016Z" fill="white"/>
<path d="M165.879 44C162.231 44 159.383 43.264 157.335 41.792C155.308 40.32 154.039 38.048 153.527 34.976C153.442 34.0373 153.634 33.3333 154.103 32.864C154.572 32.3947 155.255 32.16 156.151 32.16C157.047 32.16 157.698 32.3733 158.103 32.8C158.53 33.2267 158.818 33.888 158.967 34.784C159.287 36.256 159.97 37.2693 161.015 37.824C162.082 38.3573 163.703 38.624 165.879 38.624H175.095C177.847 38.624 179.714 38.1333 180.695 37.152C181.698 36.1493 182.199 34.2933 182.199 31.584C182.199 28.832 181.687 26.9547 180.663 25.952C179.639 24.928 177.783 24.416 175.095 24.416H167.159C163.127 24.416 160.13 23.4347 158.167 21.472C156.226 19.488 155.255 16.48 155.255 12.448C155.255 8.43733 156.215 5.46133 158.135 3.52C160.076 1.57866 163.063 0.607998 167.095 0.607998H174.711C178.103 0.607998 180.759 1.30133 182.679 2.688C184.62 4.07467 185.847 6.19733 186.359 9.056C186.487 9.97333 186.316 10.6773 185.847 11.168C185.378 11.6373 184.674 11.872 183.735 11.872C182.882 11.872 182.242 11.648 181.815 11.2C181.388 10.752 181.111 10.1013 180.983 9.248C180.642 7.98933 179.991 7.136 179.031 6.688C178.071 6.21866 176.631 5.984 174.711 5.984H167.095C164.535 5.984 162.818 6.44266 161.943 7.36C161.068 8.256 160.631 9.952 160.631 12.448C160.631 14.9653 161.079 16.6933 161.975 17.632C162.871 18.5707 164.599 19.04 167.159 19.04H175.095C179.298 19.04 182.423 20.064 184.471 22.112C186.54 24.16 187.575 27.3173 187.575 31.584C187.575 35.8293 186.551 38.9653 184.503 40.992C182.455 42.9973 179.319 44 175.095 44H165.879Z" fill="#FF5C00"/>
<path d="M222.157 44C220.365 44 219.469 43.104 219.469 41.312V3.296C219.469 1.504 220.365 0.607998 222.157 0.607998H245.132C246.925 0.607998 247.821 1.504 247.821 3.296C247.821 5.088 246.925 5.984 245.132 5.984H224.845V19.424H237.581C239.373 19.424 240.269 20.32 240.269 22.112C240.269 23.904 239.373 24.8 237.581 24.8H224.845V38.624H245.132C246.925 38.624 247.821 39.52 247.821 41.312C247.821 43.104 246.925 44 245.132 44H222.157Z" fill="#9E00FF"/>
<path d="M280.844 44C279.052 44 278.156 43.104 278.156 41.312V3.296C278.156 1.504 279.052 0.607998 280.844 0.607998H295.82C299.724 0.607998 302.711 1.65333 304.78 3.744C306.871 5.81333 307.916 8.8 307.916 12.704V14.624C307.916 18.528 306.871 21.5253 304.78 23.616C302.711 25.6853 299.724 26.72 295.82 26.72H283.532V41.312C283.532 43.104 282.636 44 280.844 44ZM283.532 21.344H295.82C298.252 21.344 299.98 20.832 301.004 19.808C302.028 18.784 302.54 17.056 302.54 14.624V12.704C302.54 10.2933 302.028 8.576 301.004 7.552C299.98 6.50666 298.252 5.984 295.82 5.984H283.532V21.344Z" fill="#00C0EA"/>
</svg>
